<svg id="Group_38255" data-name="Group 38255" xmlns="http://www.w3.org/2000/svg" width="316.655" height="57.522" viewBox="0 0 316.655 57.522">
  <path id="Path_917" data-name="Path 917" d="M133.593,410.159c.693-2.6,1.333-4.993,1.971-7.389.378-1.42.77-2.836,1.119-4.263.1-.416.267-.569.7-.553.882.032,1.768.039,2.649,0,.487-.023.62.177.733.611.929,3.567,1.888,7.126,2.838,10.686.061.231.128.46.2.722a1.136,1.136,0,0,0,.291-.693c.9-3.576,1.8-7.149,2.676-10.73.111-.454.266-.609.737-.6,1.311.033,2.624.006,3.935.014.751,0,.891.189.683.924q-2.576,9.055-5.153,18.108c-.118.417-.281.6-.76.585-1.337-.042-2.677-.037-4.015,0a.728.728,0,0,1-.872-.65c-.76-2.782-1.575-5.55-2.372-8.321-.058-.2-.127-.4-.245-.775l-2,6.943c-.147.512-.294,1.026-.442,1.539-.36,1.246-.36,1.246-1.689,1.246-1.124,0-2.249-.019-3.374.01-.4.01-.62-.085-.739-.5q-2.585-9.135-5.2-18.261c-.174-.608.018-.852.63-.848,1.232.009,2.469.064,3.694-.02.746-.051,1,.208,1.164.894.839,3.507,1.724,7,2.594,10.5.052.206.121.408.244.822" transform="translate(-33.188 -364.127)" fill="#fff"/>
  <path id="Path_918" data-name="Path 918" d="M300.54,408.992v-3.571c0-2.2.018-4.392-.01-6.587-.009-.665.226-.911.89-.887,1.016.038,2.035.009,3.052.01s1.046.015,1.046,1.03q0,8.757,0,17.514a1.348,1.348,0,0,0,0,.16c.091.719-.252.938-.936.913-1.1-.039-2.2-.037-3.292,0a.961.961,0,0,1-.953-.544c-2.044-3.231-4.111-6.45-6.171-9.671-.136-.214-.277-.425-.543-.831v1c0,3.052-.013,6.105.011,9.157.005.665-.228.909-.891.887-1.1-.038-2.2-.029-3.292,0-.582.014-.815-.2-.814-.8q.017-9,0-18c0-.642.254-.845.863-.829,1.124.029,2.25.033,3.374,0a.961.961,0,0,1,.953.544c2.044,3.231,4.11,6.45,6.17,9.671.137.214.277.425.543.831" transform="translate(11.122 -364.124)" fill="#fff"/>
  <path id="Path_919" data-name="Path 919" d="M277.1,409.391c1.013,0,1.941-.013,2.868.006.4.009.444-.141.313-.473-.488-1.246-.966-2.5-1.506-3.9-.586,1.528-1.115,2.907-1.674,4.364m8.731,8.192c-.66-.067-1.636.322-2.2-.141-.521-.43-.619-1.377-.894-2.1-.561-1.483-.557-1.485-2.157-1.485-1.553,0-3.107.014-4.659-.009a.654.654,0,0,0-.749.524c-.3.911-.689,1.795-1,2.7a.655.655,0,0,1-.751.517c-1.258-.027-2.517-.005-3.775-.011-.82-.005-.944-.2-.632-.971q3.192-7.911,6.4-15.818c.38-.933.484-2.223,1.25-2.686.731-.44,1.923-.123,2.912-.127,1.412-.006,1.413,0,1.956,1.336q3.476,8.574,6.949,17.15c.388.96.282,1.115-.751,1.117-.59,0-1.178,0-1.9,0" transform="translate(5.761 -364.144)" fill="#fff"/>
  <path id="Path_920" data-name="Path 920" d="M215.306,407.74c0-2.944.02-5.889-.014-8.834-.009-.75.249-.971.981-.965q4.82.05,9.639,0c.708-.006.958.247.93.937-.037.909-.025,1.82,0,2.729.014.586-.228.819-.811.811-1.713-.017-3.428.015-5.14-.018-.51-.009-.646.146-.614.634.052.794-.256,1.843.145,2.324.419.5,1.505.126,2.3.147q1.485.04,2.972,0c.6-.017.894.179.872.825-.033.937-.032,1.875,0,2.812.022.632-.248.852-.858.844-1.58-.02-3.16.022-4.739-.023-.586-.015-.744.173-.686.721.081.791-.333,1.852.172,2.3.436.39,1.476.113,2.249.118,1.1.009,2.2.023,3.294-.005.624-.017.868.235.85.855-.028.964-.011,1.928-.006,2.892,0,.493-.207.727-.725.726-3.347-.009-6.694-.015-10.041,0-.692,0-.773-.365-.77-.922.013-2.972.006-5.944.006-8.917" transform="translate(-8.763 -364.125)" fill="#fff"/>
  <path id="Path_921" data-name="Path 921" d="M175.98,407.744c0-2.945.02-5.89-.014-8.836-.009-.746.243-.974.979-.967q4.82.05,9.639,0c.7-.006.962.242.933.934-.037.882-.036,1.768,0,2.65.025.658-.229.909-.892.9-1.686-.029-3.374.01-5.059-.023-.5-.009-.65.14-.617.63.052.8-.257,1.846.142,2.326.419.5,1.505.126,2.3.149.989.028,1.982.034,2.971,0,.676-.025.9.254.876.9-.036.909-.032,1.822,0,2.73.022.63-.243.857-.855.848-1.58-.022-3.16.008-4.739-.015-.474-.008-.755.046-.691.63.089.816-.341,1.916.175,2.381.447.4,1.525.119,2.325.125,1.1.008,2.2.013,3.293,0,.544-.008.779.224.769.769-.015.964-.018,1.927,0,2.891.01.572-.21.816-.806.812q-4.94-.025-9.879,0c-.7.005-.862-.291-.857-.922.02-2.972.009-5.944.009-8.916" transform="translate(-19.426 -364.125)" fill="#fff"/>
  <path id="Path_922" data-name="Path 922" d="M263.214,417.947c-6.273.025-11.209-4.735-11.111-10.322a10.548,10.548,0,0,1,8.879-9.77,11.868,11.868,0,0,1,7.609,1.289c.581.316.84.622.416,1.307a23.624,23.624,0,0,0-1.339,2.643c-.283.62-.616.681-1.19.346a6.518,6.518,0,0,0-5.2-.554,5.162,5.162,0,0,0-3.838,5.2,5.3,5.3,0,0,0,4.821,4.887,6.614,6.614,0,0,0,4.329-.819c.539-.325.816-.136,1.058.37.46.965.923,1.931,1.444,2.861.282.5.145.736-.3,1.005a11.431,11.431,0,0,1-5.575,1.555" transform="translate(1.217 -364.188)" fill="#fff"/>
  <path id="Path_923" data-name="Path 923" d="M166.066,417.948a11.582,11.582,0,0,1-6.409-2.288c-.468-.339-.516-.613-.2-1.093.575-.868,1.106-1.768,1.608-2.681.35-.637.671-.76,1.305-.291a6.6,6.6,0,0,0,4.392,1.688,4.058,4.058,0,0,0,1.1-.2,1.257,1.257,0,0,0,.4-2.23,9.334,9.334,0,0,0-2.232-1.247,15.154,15.154,0,0,1-2.877-1.574,5.45,5.45,0,0,1,0-8.869,7.57,7.57,0,0,1,6.787-1.143,11.98,11.98,0,0,1,3.041,1.213c.525.294.679.627.346,1.2-.466.808-.873,1.654-1.262,2.5-.262.573-.571.676-1.124.355a5.932,5.932,0,0,0-3.816-.955c-.657.085-1.209.313-1.374,1.022s.362,1.014.833,1.318a19.17,19.17,0,0,0,2.888,1.379,9.016,9.016,0,0,1,3.511,2.465,5.674,5.674,0,0,1-1.861,8.452,10.5,10.5,0,0,1-5.058.975" transform="translate(-23.956 -364.19)" fill="#fff"/>
  <path id="Path_924" data-name="Path 924" d="M205.251,402.018c-.817-.192-.967.22-.909.92.047.583.009,1.173.009,1.761,0,1.9.179,2.033,2.071,1.586.051-.013.1-.034.151-.05a2.061,2.061,0,0,0,.015-4,11.682,11.682,0,0,0-1.337-.219m-5.876,5.687c0-2.92.024-5.84-.015-8.759-.011-.792.264-1.027,1.028-1,2.593.106,5.2-.193,7.782.164a5.673,5.673,0,0,1,5.184,5.921,6.048,6.048,0,0,1-5.14,6.307,16.012,16.012,0,0,1-3.2.14c-.515-.014-.679.117-.669.655.034,1.848-.006,3.7.024,5.545.01.656-.21.92-.881.895-1.044-.038-2.092-.053-3.133,0-.806.044-1-.286-.989-1.036.034-2.946.014-5.893.014-8.839" transform="translate(-13.083 -364.127)" fill="#fff"/>
  <path id="Path_925" data-name="Path 925" d="M229.848,407.677c0-2.916.019-5.833-.014-8.749-.008-.727.2-1.021.96-.983,1.041.052,2.088.047,3.129,0,.719-.031.918.261.914.943-.022,4.469.005,8.937-.028,13.405-.005.669.156.853.829.83,1.6-.053,3.211.006,4.815-.028.7-.015.962.243.933.939-.041.934-.014,1.872-.009,2.809,0,.491-.2.728-.721.727q-5.057-.013-10.114,0c-.664,0-.7-.4-.7-.9.008-3,0-5.993,0-8.991" transform="translate(-4.821 -364.125)" fill="#fff"/>
  <path id="Path_926" data-name="Path 926" d="M150.817,407.764c0-2.944.018-5.888-.013-8.831-.008-.721.193-1.025.955-.988,1.069.053,2.141.03,3.211.006.564-.013.834.166.833.777q-.017,9.03,0,18.063c0,.606-.261.793-.829.78-1.1-.024-2.2-.036-3.291,0-.675.023-.881-.249-.876-.9.023-2.969.01-5.94.01-8.911" transform="translate(-26.248 -364.125)" fill="#fff"/>
  <path id="Path_927" data-name="Path 927" d="M244.01,407.763c0-2.944.018-5.888-.013-8.83-.008-.722.2-1.023.956-.986,1.068.052,2.141.03,3.211.006.564-.013.833.169.831.778q-.017,9.03,0,18.063c0,.606-.263.792-.83.779-1.1-.024-2.2-.036-3.291,0-.676.023-.88-.252-.874-.9.023-2.969.01-5.94.01-8.911" transform="translate(-0.981 -364.125)" fill="#fff"/>
  <path id="Path_928" data-name="Path 928" d="M80.337,424.369a1.29,1.29,0,0,0,.683.146.088.088,0,0,0,.112-.079c.01-.072-.043-.1-.094-.1a1.726,1.726,0,0,0-.7.028m21.354-11.533.067.013c.074-.193.151-.385.224-.58.024-.061.043-.137-.036-.168-.1-.041-.137.032-.153.117-.034.206-.067.412-.1.618m3.042,2.364-.126.013q.132.725.262,1.452c.036-.006.071-.013.108-.018-.081-.483-.161-.965-.244-1.447m15.553,6.989c.182-.48.319-.892.494-1.285.13-.291.042-.414-.247-.446a6.482,6.482,0,0,1-1.537-.306.376.376,0,0,0-.475.178,2.042,2.042,0,0,0-.183,1.262.151.151,0,0,0,.085.116c.347.047.727.266,1.033.112.436-.217.628-.056.829.37m9.47-12.613a.9.9,0,0,0,.573-.339c.9-.992,1.752-2.027,2.749-2.929.052-.047.135-.088.067-.191a.7.7,0,0,0-1.016-.109,39.422,39.422,0,0,0-2.575,3.236c-.047.071-.159.136-.111.23s.175.1.311.1m-14.174-2.1c.05-.023.08-.027.092-.042a26.543,26.543,0,0,1,3.924-4.913c.177-.173.189-.282-.093-.313-.886-.093-1.774-.189-2.663-.28-.248-.024-.388.152-.493.333a2.462,2.462,0,0,0-.2.511,21.869,21.869,0,0,0-.558,4.051,1.583,1.583,0,0,0-.01.652M63.493,421.844a3.607,3.607,0,0,0,1.443.816c.8.178,1.574.427,2.366.619a11.164,11.164,0,0,0,4.012.494,4.684,4.684,0,0,0,2.962-1.133,1.652,1.652,0,0,1,1.37-.686.977.977,0,0,0,.413-.117c.122-.051.35-.02.341-.188a.434.434,0,0,0-.393-.386,1.256,1.256,0,0,0-.467.033c-.422.1-.841.217-1.258.339a3.164,3.164,0,0,1-1.67.114,1.5,1.5,0,0,0-1.2.173,3.4,3.4,0,0,1-1.036.374,11.521,11.521,0,0,1-5.123-.126,8.489,8.489,0,0,0-1.755-.327m68.936-17.489a2.5,2.5,0,0,0-.866.255q-3.6,1.5-7.2,3a1.179,1.179,0,0,0-.282.136c-.118.093-.313.2-.252.353a.407.407,0,0,0,.444.177,5.947,5.947,0,0,1,3.21.614c.2.1.4.2.605.283.531.2.728.131,1-.358a4.327,4.327,0,0,1,.91-1.182,11.175,11.175,0,0,0,2.157-2.747,1.14,1.14,0,0,0,.27-.533m-17.338,7.707a3.415,3.415,0,0,0-2.5.662,1.386,1.386,0,0,1-.48.266,9.523,9.523,0,0,0-2.577,1.508c-.154.122-.324.222-.488.334-.079.055-.239.023-.231.167s.147.174.255.22q.637.263,1.275.524,1.75.715,3.5,1.43c.079.032.167.123.248.031a.252.252,0,0,0-.008-.3.383.383,0,0,0-.154-.172c-.352-.166-.35-.451-.281-.77a1.323,1.323,0,0,1,.777-1.025.307.307,0,0,0,.2-.453,2.25,2.25,0,0,1,.376-2.2.247.247,0,0,0,.083-.23m-39.93,8.4c-.29-.255-.545-.478-.8-.7a.376.376,0,0,0-.407-.058,9.993,9.993,0,0,1-1.308.278,1.615,1.615,0,0,1-1.356-.183,2.19,2.19,0,0,0-.849-.3,13.122,13.122,0,0,1-4.2-1.539,5.087,5.087,0,0,0-1.716-.67c-.3-.05-.4.032-.357.313.074.432-.14.639-.533.717-.361.072-.722.141-1.082.217-.116.024-.249.052-.268.193-.015.114.112.127.183.177a.9.9,0,0,1,.3,1.414c-.25.432-.214.533.276.638,1.311.285,2.624.548,3.949.756a6.439,6.439,0,0,0,4.6-.807,1.837,1.837,0,0,1,1.591-.311,1.169,1.169,0,0,1,.5.194.557.557,0,0,0,.628.083c.272-.125.536-.258.859-.414m50.633-7.319c-.028,0-.064-.019-.075-.009-.088.078-.177.156-.258.242a45.261,45.261,0,0,0-4.39,5.475c-.253.358-.277.581.062.868.179.151.436.341.334.623a26.624,26.624,0,0,1-1.093,2.663c-.072.147-.212.241-.352.125a2.564,2.564,0,0,0-1.647-.65c-.167,0-.3-.156-.421-.28a2.552,2.552,0,0,0-.365-.358.363.363,0,0,1-.144-.479c.131-.344.267-.685.409-1.025.167-.4.125-.542-.268-.714-1.72-.754-3.48-1.419-5.17-2.245a.5.5,0,0,0-.688.184c-.191.267-.4.52-.592.788-.336.474-.314.559.161.919a33.432,33.432,0,0,0,5.763,3.158c1.051.51,2.158.9,3.222,1.387.254.114.322.064.428-.154q2.5-5.1,5-10.2c.046-.1.164-.186.078-.318M65.236,427.819a12.427,12.427,0,0,0,4.289-.763,13.8,13.8,0,0,0,4.2-2.369c.526-.477,1.107-.891,1.638-1.361a1.48,1.48,0,0,1,1.164-.451,1.517,1.517,0,0,0,.766-.282c.125-.06.29-.105.2-.311a.321.321,0,0,0-.4-.228,4.894,4.894,0,0,0-2.306.925,6.026,6.026,0,0,1-4.036,1.438,13.606,13.606,0,0,1-3.764-.605,11.015,11.015,0,0,1-3.427-1.119c-.147-.1-.341-.3-.526-.12a.614.614,0,0,0-.093.634,4.065,4.065,0,0,1,.112.418.93.93,0,0,1-.494,1.065c-.639.313-.521.432-.287.985a.935.935,0,0,0,.191.295.919.919,0,0,1,.217,1.086c-.154.364,0,.508.325.592a7.66,7.66,0,0,0,2.232.17m31.65-20.513c-.088.126-.013.271-.028.407-.009.1.076.24-.041.285-.155.057-.178-.122-.24-.207a14.631,14.631,0,0,0-1.308-1.78,2.325,2.325,0,0,1-.642-2.208c.043-.228.1-.608-.067-.648-.245-.06-.358.269-.44.507a19.455,19.455,0,0,0-.674,2.677,5.167,5.167,0,0,0,1.438,5.036c.278.261.54.54.83.788a6.33,6.33,0,0,0,2.357,1.322.982.982,0,0,0,.986-.214,4.516,4.516,0,0,0,1.119-1.652,5.911,5.911,0,0,1,.552-1.218c.186-.243.164-.357-.118-.519-1.305-.744-2.747-1.3-3.676-2.584l-.047.008m33.9-3.08a11.627,11.627,0,0,0-2.724-.924c-1.73-.442-3.372-1.308-5.237-1.145a.146.146,0,0,1-.039,0c-.193-.027-.337-.105-.276-.332s-.055-.21-.206-.206a1.832,1.832,0,0,0-1.542.808c-.744,1.054-1.571,2.043-2.369,3.053a12.451,12.451,0,0,0-1.421,1.936c-.149.286-.113.4.2.413,1.025.047,2.048.111,3.072.127a1.516,1.516,0,0,0,1.089-.252,1.557,1.557,0,0,1,.683-.356,63.46,63.46,0,0,0,7.994-2.668,2.457,2.457,0,0,0,.774-.451M120.5,418.5l.09.03q.877-1.039,1.75-2.078,1.7-2.021,3.408-4.045c.071-.085.287-.2.014-.313a6.209,6.209,0,0,0-1.55-.566,29.468,29.468,0,0,0-4.017-.217c-1.466,0-2.884.421-4.34.547a.343.343,0,0,0-.211.093,3.513,3.513,0,0,0-.825,1.283,1.175,1.175,0,0,0,.272,1.07c.085-.15.033-.281.041-.407a1.689,1.689,0,0,1,.529-1.274c.139-.118.29-.243.494-.147.081.037.2.079.188.177-.033.191-.212.253-.369.318a.468.468,0,0,0-.278.7,1.38,1.38,0,0,1,.07.735,1.328,1.328,0,0,0-.01.54c.577-.168.506-.639.529-1.069.553.4.6.641.2,1.29-.182.3-.1.378.2.419a1.384,1.384,0,0,0,1.558-1.175,1.848,1.848,0,0,0-.756-1.872c-.075-.056-.254-.125-.127-.262.088-.1.222-.044.31.056a2.918,2.918,0,0,1,.89,2.127,1.529,1.529,0,0,1-2.043,1.389,1.561,1.561,0,0,0-1.6.277,1.028,1.028,0,0,0,.169,1.583,14.807,14.807,0,0,0,3.886,1.458c.329.042.465-.023.539-.32a4.892,4.892,0,0,0,.109-1.49,31.222,31.222,0,0,1-.028-4.535,1.072,1.072,0,0,1,.144-.566.3.3,0,0,1,.329-.163c.135.041.079.178.083.275.051.828.1,1.655.141,2.483q.1,1.825.2,3.649m-36.388-38.68.083.028-.025-.083a3.684,3.684,0,0,0-.492-1.238,5.946,5.946,0,0,1-.608-1.41c-.022-.1-.093-.231.028-.282.136-.057.158.105.206.187.576.961.991,2,1.51,2.993a.4.4,0,0,1-.064.542c-.128.1-.1.183-.023.3.217.329.426.664.634,1,.1.164.275.392.1.521s-.338-.1-.461-.252a9.338,9.338,0,0,1-.8-1.22c-.51-.922-1.022-1.842-1.522-2.769a.9.9,0,0,0-.48-.437c-.229-.09-.309-.01-.25.212a5.274,5.274,0,0,0,.372,1.08q.721,1.426,1.433,2.858c.136.271.271.543.388.821.033.08.119.211-.011.277-.1.053-.2-.032-.283-.1a.635.635,0,0,1-.131-.192,19.34,19.34,0,0,1-2.1-4.879.705.705,0,0,0-.2-.422c-.08-.064-.184-.153-.266-.142-.123.015-.159.161-.177.277a1.106,1.106,0,0,0,.006.275,6.134,6.134,0,0,0,.55,2.129,15.739,15.739,0,0,0,4.581,5.8c.041.03.09.058.064.151a.844.844,0,0,1-.835-.1,4.419,4.419,0,0,1-.991-.838,19.505,19.505,0,0,1-3.318-4.879.6.6,0,0,0-.188-.294c-.493-.328-.978-.667-1.478-.981-.248-.155-.4-.048-.38.252a1.677,1.677,0,0,0,.05.272,8.178,8.178,0,0,0,2.7,4.615c.821.718,1.613,1.473,2.418,2.213a5.063,5.063,0,0,1,1.333,2.509.388.388,0,0,1,0,.194c-.02.074-.046.172-.1.2-.1.056-.17-.044-.23-.105a1.892,1.892,0,0,1-.343-.745c-.058-.159-.109-.242-.306-.164a1.484,1.484,0,0,1-1.356-.184,9.589,9.589,0,0,1-1.674-1.248c-.535-.5-1.087-.993-1.637-1.485-.07-.062-.14-.2-.257-.114-.075.056-.029.175-.005.262a3.087,3.087,0,0,0,.144.45,8.256,8.256,0,0,0,.972,1.666,15.245,15.245,0,0,0,2.24,2.331c.123.109.29.2.263.411a.653.653,0,0,0,.294.608c.1.078.2.147.084.287-.09.112-.188.182-.338.119s-.28-.113-.494-.2a7.243,7.243,0,0,0,1.652,1.633,1,1,0,0,1-1.11-.306c-.263-.3-.525-.592-.789-.886-.533-.594-1.07-1.186-1.659-1.839.01.133.006.182.017.228a4.483,4.483,0,0,0,1.924,2.832c.383.28.787.529,1.181.792.089.06.193.141.161.247-.041.131-.18.069-.277.061a3.222,3.222,0,0,1-1.379-.552,2.71,2.71,0,0,0-.7-.376c.011.109.011.174.025.236a2.124,2.124,0,0,0,1.4,1.539c.2.086.506.214.458.421s-.366.187-.591.16c-.062-.008-.137-.037-.179.029-.056.092.032.14.08.2a2.03,2.03,0,0,0,.528.406c.1.066.234.183.158.319a.286.286,0,0,1-.358.085c-.159-.061-.305-.153-.465-.211-.123-.047-.24-.231-.376-.107a.531.531,0,0,0-.113.446.921.921,0,0,0,.23.492c.278.352.547.711.825,1.06a.683.683,0,0,1,.111.689c-.618-.164-.711-.835-1.139-1.188a.559.559,0,0,0,.128.539c.177.248.357.489.544.728a.438.438,0,0,1,.123.356,5.2,5.2,0,0,0,1.026,3.714,2.067,2.067,0,0,1,.214.374.3.3,0,0,1-.14.343c-.13.08-.165-.085-.22-.159-.239-.319-.468-.646-.756-1.051a5.009,5.009,0,0,0,1.243,3.771c-.605.093-.727-.441-1.046-.7a1.216,1.216,0,0,0-.066.679,5.344,5.344,0,0,0,.759,2.059c.053.091.208.18.092.305-.314.333-.133.628.048.927.658,1.079,1.342,2.142,2.088,3.161a41.857,41.857,0,0,1,2.991,4.36c.1.178.211.342.029.541-.272-.174-.325-.512-.535-.718a23.514,23.514,0,0,0-3.239-2.94,6.105,6.105,0,0,0-2.033-.746c.043.154.147.155.226.188.305.127.605.259.911.376.175.067.281.2.236.358s-.236.168-.372.14a4.436,4.436,0,0,1-.714-.215,3.209,3.209,0,0,0-2.157-.184c-.792.24-1.59.46-2.385.7a9.4,9.4,0,0,0-1.553.571.651.651,0,0,1,.379-.517c.189-.119.388-.222.587-.324.17-.086.35-.16.524-.24a20.881,20.881,0,0,1-7.383.183.891.891,0,0,0,.675.735,2.033,2.033,0,0,1,.605.281,3.474,3.474,0,0,0,3.313.376c.125-.051.3-.186.4.05s-.076.319-.234.378a3.729,3.729,0,0,1-3.027.009.552.552,0,0,0-.475-.072,3.918,3.918,0,0,0,3.31,1.064,1.429,1.429,0,0,1-1.351.464c-.33-.084-.658-.179-.993-.248-.119-.025-.273-.168-.361-.034-.1.15-.008.33.09.474a.522.522,0,0,0,.451.2c.592.015,1.183.031,1.776.053.215.008.567-.042.571.187,0,.25-.339.271-.58.275-.372.009-.747,0-1.124,0,.9.906,1.912.3,2.871.3.006.032.015.064.02.1l-1.469.756a1.664,1.664,0,0,0,1.551-.223,4.867,4.867,0,0,1,.794-.435.215.215,0,0,1,.283.058c.066.109-.017.208-.094.273a1.951,1.951,0,0,1-.332.21c-.33.18-.661.355-1.032.553a3.4,3.4,0,0,0,2.414.381c.791-.118,1.665-.014,2.171-.918a.617.617,0,0,1-.252.848,4.513,4.513,0,0,1-2.13.871c-.336.022-.478.192-.336.533.08.189.1.371-.158.435-.208.051-.186.146-.112.31a2.349,2.349,0,0,1,.165,1.237c-.041.4.052.506.45.495.433-.013.867-.046,1.3-.065.244-.011.39.1.332.355-.048.215.048.287.234.308.393.043.264.22.1.392a1.214,1.214,0,0,1-.637.291,3.561,3.561,0,0,1-.909,0,1.188,1.188,0,0,0,.37.543,4.728,4.728,0,0,0,3.548,1.135,19.167,19.167,0,0,1,3.3-.271,4.04,4.04,0,0,0,1.876-.544c.1-.043.194-.135.184-.235-.015-.146-.169-.078-.259-.1-.248-.064-.533.013-.741-.206a.6.6,0,0,0-.726-.112.731.731,0,0,1-.718.009,9.628,9.628,0,0,0,2.733-1.861,1.115,1.115,0,0,1-.512,1.051c-.2.144-.419.275-.622.418-.154.107-.156.192.039.259a1.18,1.18,0,0,0,.847-.064,4.811,4.811,0,0,0,2.241-1.865c.175-.262.361-.516.554-.767.08-.1.2-.216.33-.1.107.1.07.243-.018.358-.135.179-.267.358-.405.535-.374.482-.751.964-1.175,1.505a.966.966,0,0,0,.234-.034,15.826,15.826,0,0,0,3.293-2.151,3.36,3.36,0,0,0,1-2.7,6.834,6.834,0,0,1-.637,1.239c-.375.536-.73.868-.994.891a5.756,5.756,0,0,0,1.074-3.465l-1.919,1.666c-.085-.217.131-.416-.01-.5-.332-.2-.071-.3.039-.422a4.169,4.169,0,0,0,1-1.4c.036-.1.127-.236,0-.323s-.21.065-.289.137c-.441.4-.876.808-1.314,1.215a4.512,4.512,0,0,1,1.8-2.283c.224-.147.515-.247.188-.577-.047-.051-.02-.177-.027-.268-.018-.3.078-.376.356-.219a.958.958,0,0,0,.638.118.41.41,0,0,1,.393.639,1.176,1.176,0,0,1-.447.435,3.1,3.1,0,0,0-.669.475c.351.131.683.257,1.014.378.1.034.224.03.253.154.086.348.315.324.583.254a1.429,1.429,0,0,1,.468-.053c.168.015.391-.037.468.2a.672.672,0,0,1-.076.708c-.1.109-.2.212-.287.327-.044.056-.142.121-.076.2a.341.341,0,0,0,.212.071.931.931,0,0,0,.693-.325c.239-.207.482-.4.792-.114a.159.159,0,0,0,.187.022q.614-.353,1.227-.711a5.091,5.091,0,0,0-1.345.2c-.107.017-.255.123-.308-.033s.109-.212.23-.266a.81.81,0,0,1,.149-.047,5.028,5.028,0,0,0,2.222-1.3c.629-.586.844-1.457,1.475-2.033.041-.037.041-.122.053-.187.1-.582.208-1.166.305-1.749.034-.194.053-.468-.146-.512-.172-.038-.154.254-.229.4-.114.214-.071.564-.353.62-.35.07-.454.319-.6.567a1.974,1.974,0,0,1-.385.59c-.1-.542.214-.934.3-1.382a6.47,6.47,0,0,1-1.87,1.654l-.093-.1q.509-.681,1.019-1.36a.113.113,0,0,0-.169.009,3.939,3.939,0,0,1-2.095,1.078,2.071,2.071,0,0,1-1.649-.236,9.281,9.281,0,0,0-1.37-.779c-.039-.023-.08-.06-.114,0,0,.01.036.047.056.071.1.139.192.281.3.414.422.531.423.53.006,1.079-.3.4-.353.4-.707.053a3.064,3.064,0,0,1-.245-.308,29.882,29.882,0,0,0-2.634-3.441,1.112,1.112,0,0,1-.158-.271,6.165,6.165,0,0,1-.727-3.612,5.092,5.092,0,0,1,.961-2.827c.044-.06.06-.17.155-.154s.13.128.132.216a1.03,1.03,0,0,1-.05.266c-.142.575-.283,1.149-.432,1.722-.037.146-.058.254.151.262.337.013.4.235.378.521-.013.167-.081.35.112.506.029-.32.06-.608.086-.9.094-1.087.158-2.177.347-3.255a10.115,10.115,0,0,1,2.378-4.656,14.743,14.743,0,0,0,1.866-2.636,4.3,4.3,0,0,0,.388-3.9.822.822,0,0,1-.042-.271,5.882,5.882,0,0,0-.675-2.373,14.84,14.84,0,0,0-2.308-3.137c-1.931-2.138-4.027-4.132-5.745-6.455A22.759,22.759,0,0,1,84.7,373.06a.552.552,0,0,0-.056-.146c-.062-.111-.086-.308-.217-.3a.43.43,0,0,0-.364.324,2.648,2.648,0,0,0-.107,1.168,14.66,14.66,0,0,0,1.318,4.036,24.369,24.369,0,0,0,1.862,2.973c.048.07.153.147.076.239s-.164-.009-.239-.048a1.771,1.771,0,0,1-.477-.409,10.068,10.068,0,0,1-2.179-3.629c-.386-1.121-1.352-1.731-2.029-2.666a2.663,2.663,0,0,0,.194,1.563,14.506,14.506,0,0,0,1.633,3.657M93.546,424.1l-.014.023,0-.032c.051,0,.128.034.085-.072.094.085.13,0,.178-.06a12.662,12.662,0,0,0,2.311-2.25l-.084-.079q-1.142,1.133-2.289,2.264l-.108.131c-.027.024-.056.05-.083.075m36.812-14.4c.032.132.114.155.181.188a6.053,6.053,0,0,1,2.841,3.726,1.167,1.167,0,0,1-.6,1.462.719.719,0,0,1-.91-.283c-.381-.489-.736-.447-1.258-.189a17.152,17.152,0,0,0-2.716,1.337,3.516,3.516,0,0,0-1.326,1.618,19.6,19.6,0,0,1-1.033,1.861,52.653,52.653,0,0,1-3.238,5.547,7.346,7.346,0,0,1-4.09,3.3,9.476,9.476,0,0,1-7.217-.529c-.325-.172-.646-.352-.981-.507a9.3,9.3,0,0,1-4.113-4.387,32.806,32.806,0,0,1-2.23-5.348c-.2-.608-.287-.628-.835-.325a6.829,6.829,0,0,0-1.112.817,11.448,11.448,0,0,1-3.246,2A2.556,2.556,0,0,0,97.25,421c-.362.549-.753,1.079-1.14,1.611a7.653,7.653,0,0,1-3.117,2.54c-1.13.5-2.266.984-3.4,1.482a6.274,6.274,0,0,1-2.451.544c-1.07.014-2.116.25-3.183.276A5.91,5.91,0,0,1,79.854,426c-.589-.5-1.141-1.052-1.768-1.513a2.512,2.512,0,0,0-3.29.119c-.989.826-2,1.63-3.016,2.423a5.832,5.832,0,0,1-3,1.311c-1.083.114-2.137.454-3.23.512a11.211,11.211,0,0,1-3.156-.433.6.6,0,0,1-.487-.78,2.341,2.341,0,0,0-.334-1.881.964.964,0,0,1,.361-1.342.837.837,0,0,0,.421-.965,1.988,1.988,0,0,1,.144-1.566c.1-.139-.05-.172-.135-.221-.671-.389-.756-.7-.351-1.377a1,1,0,0,0-.075-1.27c-.376-.468-.2-.91.4-1.038a4.513,4.513,0,0,1,.627-.08.5.5,0,0,0,.531-.549c.037-.735.2-.857.937-.747a4.3,4.3,0,0,1,1.818.733,14.99,14.99,0,0,0,5.766,2.008,4.123,4.123,0,0,0,1.565-.126c.181-.032.16-.131.123-.256a8.6,8.6,0,0,0-1.572-3.568,11.813,11.813,0,0,1-1.711-2.916.4.4,0,0,1,.381.044,4.353,4.353,0,0,0,2.448.761,12.912,12.912,0,0,0,6.045-.821c1.016-.356,2.017-.758,3.023-1.15.459-.178.547-.388.405-.868-.117-.39-.243-.779-.351-1.172a4.439,4.439,0,0,1-.262-2.235,4.852,4.852,0,0,0-.133-1.724,2.924,2.924,0,0,1,.163-1.551,3.413,3.413,0,0,0,.141-2.17,1.808,1.808,0,0,1,0-1.086,1.293,1.293,0,0,0-.1-.961,8.076,8.076,0,0,1-.705-4.308,1.93,1.93,0,0,0-.215-1.152,5.551,5.551,0,0,1-.5-2.255,2.277,2.277,0,0,0-.2-.834,4.27,4.27,0,0,1-.465-2.523.787.787,0,0,0-.177-.547,8.757,8.757,0,0,1-1.3-3.568c-.062-.531.076-.638.595-.5a1.536,1.536,0,0,1,.681.454q1.051,1.045,2.1,2.088a.813.813,0,0,0,.376.277c.1-.217-.071-.329-.167-.452-.507-.656-1.012-1.316-1.541-1.954a13.825,13.825,0,0,1-2.169-4.052,2.451,2.451,0,0,1-.135-1.435c.184-.807.8-1.009,1.429-.465l.4.353c0-.332.005-.585,0-.838a2.583,2.583,0,0,1,.379-1.468c.1-.16.159-.2.32-.076.318.234.655.442.985.66.074.048.156.137.247.076.121-.083.024-.191-.008-.284a15.394,15.394,0,0,1-.524-1.652,2.446,2.446,0,0,1,.064-1.514c.186-.427.342-.459.722-.194a2.122,2.122,0,0,1,.595.676l.341.569a4.489,4.489,0,0,0,.027-1.22,2.816,2.816,0,0,1,.5-1.752.765.765,0,0,1,1.34.2,1.628,1.628,0,0,1,.072.465,4.8,4.8,0,0,0,.519,2.167,30.528,30.528,0,0,0,5.484,8.247c1.749,1.9,3.587,3.712,5.159,5.765a3.033,3.033,0,0,1,.33.442c1.13,2.3,2.181,4.615,1.272,7.273-.1.275-.032.412.286.318.229-.066.455-.133.686-.186a2.166,2.166,0,0,1,1.67.253,1.981,1.981,0,0,0,1.159.323.41.41,0,0,1,.194.02,16.8,16.8,0,0,1,2.35,1.107,7.277,7.277,0,0,1,2.907,4.214,1.349,1.349,0,0,1,.022.664c-.017.074,0,.177-.107.183s-.107-.089-.127-.167a13.708,13.708,0,0,0-.55-1.519,1.107,1.107,0,0,0-.829-.657c-.065-.017-.133-.055-.188,0-.47.455-1.045.252-1.579.234a.731.731,0,0,0-.642.3c-.386.413-.528.983-.958,1.356a.819.819,0,0,0-.2.547.69.69,0,0,1-.22.488.6.6,0,0,1-.133-.562A4.026,4.026,0,0,1,102.9,400.8c.273-.283.567-.55.853-.82a.683.683,0,0,1,.681-.207c.222.06.442.024.528-.216.1-.281-.111-.412-.328-.494-.639-.242-1.269-.515-1.924-.7a3.073,3.073,0,0,0-3.244,1.183c-.041.059-.065.153-.188.128-.109-.2-.013-.36.108-.521a6.772,6.772,0,0,1,1.35-1.431c.078-.058.214-.109.167-.235-.057-.155-.2-.086-.308-.061a3.424,3.424,0,0,0-1.5.981c-.079.072-.136.276-.305.127-.147-.127-.024-.235.05-.338.212-.3.428-.6.642-.9.051-.071.132-.136.005-.222-.192-.132-.756-.1-.84.1a5.084,5.084,0,0,1-.826,1.042,8.951,8.951,0,0,0-.623,1.005c-.2.361-.145.455.257.5.445.056.5.2.231.587a4,4,0,0,0-.723,1.077c.208-.135.433-.4.618-.376.294.041.43-.217.7-.22a2.327,2.327,0,0,1-.541,1.087,1.829,1.829,0,0,0-.425.961c-.009.187,0,.324.248.181.228-.128.478-.22.718-.328a2.247,2.247,0,0,1,2.317.239,3.815,3.815,0,0,1,.989,1.064,1.032,1.032,0,0,1,.135.869,1.349,1.349,0,0,0,1.03,1.758c.425.127.852.247,1.29.374-.1.172-.234.142-.362.117-.089-.018-.173-.065-.262-.08a3.561,3.561,0,0,1-2.885-2.5.734.734,0,0,0-.069-.142c-.192-.311-.23-.736-.7-.834a2.047,2.047,0,0,0-1.776.222c-.136.1-.277.2-.411.308a1.582,1.582,0,0,0-.5,2.071,4.426,4.426,0,0,0,1.972,2.129,30.7,30.7,0,0,1,3.765,2.294,6.141,6.141,0,0,1,2.242,3.372,33.672,33.672,0,0,1,.955,4.635,6.841,6.841,0,0,0,1.011,2.633c.084.121.191.266.038.385-.187.147-.248-.075-.324-.168a9.976,9.976,0,0,1-1.075-1.88c-.065-.125-.088-.276-.247-.379a.522.522,0,0,0,.037.444c.234.67.5,1.332.7,2.012a10.69,10.69,0,0,0,2.369,3.787.64.64,0,0,0,.112.108c2.9,2.147,6.017,3.282,9.638,2.1a6.88,6.88,0,0,0,3.122-2.2,15.272,15.272,0,0,0,1.959-3.094c1.019-2.053,2.231-4,3.393-5.97a4.277,4.277,0,0,1,1.749-1.495,7.94,7.94,0,0,0,.735-.456.324.324,0,0,0,.013-.583c-.449-.364-.89-.739-1.356-1.083a.6.6,0,0,0-.951.154,4.232,4.232,0,0,0-.632,1.134,5.357,5.357,0,0,1-.662,1.3,50.072,50.072,0,0,0-3.949,7.631c-.184.408-.365.816-.568,1.215a.576.576,0,0,1-.872.325,71.394,71.394,0,0,1-9.9-4.952c-.431-.285-.464-.422-.164-.855.32-.467.636-.937.969-1.4.2-.271.172-.446-.16-.558-.911-.308-1.785-.7-2.667-1.08-.469-.2-.535-.361-.226-.754a3.789,3.789,0,0,1,.547-.568c.177-.15.168-.271.07-.469a4.912,4.912,0,0,0-1.229-1.52,23.288,23.288,0,0,0-3.4-2.489,17.515,17.515,0,0,1-2.964-2.711c-.123-.117-.189-.31-.071-.422s.309-.023.414.1a13.076,13.076,0,0,0,5.265,3.285,13.243,13.243,0,0,0,3.362,1.106,16.47,16.47,0,0,0,5.5-.145,35.443,35.443,0,0,1,4.392-.458c.76-.067,1.515-.192,2.275-.244a11.092,11.092,0,0,1,7.806,2.273q1.049.808,2.109,1.6c.149.112.344.316.51.17.146-.127.118-.384.025-.595-.285-.65-.533-1.319-.852-1.951a3.571,3.571,0,0,0-2.462-1.81c-.636-.163-1.218-.463-1.876-.583-2.28-.417-4.586-.637-6.891-.854-2.79-.263-5.585-.5-8.373-.788a28.11,28.11,0,0,1-2.953-.515,2.866,2.866,0,0,1-1.79-1.14,6.96,6.96,0,0,0-.708-.847c-.239-.235-.089-.467-.051-.7.018-.118.125-.069.186-.029a1.418,1.418,0,0,1,.347.258,16.733,16.733,0,0,0,2.208,1.778,1.811,1.811,0,0,0,.808.3c1.2.294,2.421.5,3.641.707.664.113.717.041.829-.63.311-1.856.638-3.709.96-5.564.044-.254.121-.467.451-.408,1.093.191,2.205.136,3.3.231.315.027.63.042.947.055a1.015,1.015,0,0,0,.683-.144,1.577,1.577,0,0,1,1.127-.224,26.234,26.234,0,0,1,5.058.817c1.57.332,3.135.681,4.7,1.019a3.719,3.719,0,0,0,.866.028.637.637,0,0,1,.716.8,2.466,2.466,0,0,1-.553,1.12c-.347.483-.308.586.245.754.684.208.85.472.239,1.157a12.066,12.066,0,0,1-1.224,1.058,3.949,3.949,0,0,0-.787.878c-.3.465-.576.948-1.152,1.1" transform="translate(-50.478 -371.338)" fill="#fff"/>
  <path id="Path_929" data-name="Path 929" d="M56.323,401.087c.151-.072.224.032.309.077q1.939,1.058,3.876,2.124a1.259,1.259,0,0,0,.967.2,1.109,1.109,0,0,1,.953.291,17.28,17.28,0,0,0,5.965,2.791,13.052,13.052,0,0,1,3.471,1.374c.177.114.433.2.319.459-.125.282-.378.153-.585.076-1.4-.51-2.8-1-4.182-1.539a52.656,52.656,0,0,1-9.011-4.305c-.613-.384-1.2-.806-1.8-1.214a.569.569,0,0,1-.283-.337" transform="translate(-51.864 -363.279)" fill="#fff"/>
  <path id="Path_930" data-name="Path 930" d="M63.041,408.721a1.68,1.68,0,0,1-.317-.1c-1.4-.671-2.855-1.23-4.195-2.011a16.363,16.363,0,0,1-5.276-4.846,7.555,7.555,0,0,1-.375-.693c-.037-.066-.117-.126-.011-.193.088-.056.145.006.2.067a1.2,1.2,0,0,1,.128.15c1.847,2.757,4.6,4.379,7.416,5.921a17.693,17.693,0,0,0,2.129.934c.172.067.343.132.512.2s.414.136.36.334c-.051.183-.3.233-.569.226" transform="translate(-52.815 -363.333)" fill="#fff"/>
  <path id="Path_931" data-name="Path 931" d="M102.652,402.788a15.61,15.61,0,0,1-5.313-.91,2.64,2.64,0,0,1-.66-.348c-.076-.058-.238-.085-.2-.206.056-.159.215-.112.343-.084.436.1.871.2,1.307.295.629.139,1.26.271,1.889.408a19.42,19.42,0,0,0,5.731.039c.536-.042,1.073-.093,1.611-.14.159-.014.362-.041.421.122.067.189-.173.222-.278.319a.736.736,0,0,1-.468.189c-1.523.079-3.043.182-4.387.315" transform="translate(-40.977 -363.239)" fill="#fff"/>
  <path id="Path_932" data-name="Path 932" d="M61.4,409.936c-.131-.05-.281-.1-.425-.16q-1.8-.8-3.6-1.594a8.946,8.946,0,0,1-2.962-2.119c-.437-.474-.887-.936-1.327-1.406-.079-.083-.192-.187-.072-.3.1-.1.192.034.273.081.211.125.3.367.468.529a14.193,14.193,0,0,0,3.065,2.327,41.241,41.241,0,0,0,4.563,2.134.848.848,0,0,1,.178.085c.1.067.21.159.167.283s-.186.123-.324.139" transform="translate(-52.775 -362.396)" fill="#fff"/>
  <path id="Path_933" data-name="Path 933" d="M95.154,397.5a.959.959,0,0,0,.055-1.263c-.208-.366-.17-.456.2-.667.339-.191.4.083.516.278a.957.957,0,0,1,.109.572,4.178,4.178,0,0,1-.777,2.076,1.1,1.1,0,0,1-.291.259.591.591,0,0,1-.669.031.568.568,0,0,1-.234-.623,2.979,2.979,0,0,1,.536-1.172c.144-.226.3,0,.393.111a1.356,1.356,0,0,1,.156.4" transform="translate(-41.633 -364.785)" fill="#fff"/>
  <path id="Path_934" data-name="Path 934" d="M98.182,412.246c.517.59,1.148.99,1.641,1.53a4.879,4.879,0,0,0,2.733,1.455c.192.041.5.017.445.314s-.313.343-.6.292a4.255,4.255,0,0,1-2.092-.942q-1.02-.871-2-1.792a.648.648,0,0,1-.135-.858" transform="translate(-40.543 -360.247)" fill="#fff"/>
  <path id="Path_935" data-name="Path 935" d="M96.73,396.883c.329,1.167-.451,1.941-.991,2.8a.654.654,0,0,1-.328.207c-.132.061-.262.079-.357-.042s-.039-.253.05-.358c.28-.332.55-.672.849-.986a1.132,1.132,0,0,0,.317-1.005c-.067-.521-.089-1.047-.126-1.572-.013-.187.005-.458.177-.473.215-.018.329.216.344.447.022.328.045.656.066.984" transform="translate(-41.377 -364.801)" fill="#fff"/>
  <path id="Path_936" data-name="Path 936" d="M90.263,398.944a1.41,1.41,0,0,1,.629-1.771.617.617,0,0,1,.458-.048c.121.046.266.107.275.247.006.123-.119.2-.234.234a1.173,1.173,0,0,0-.873.962.774.774,0,0,1-.254.376" transform="translate(-42.691 -364.354)" fill="#fff"/>
  <path id="Path_937" data-name="Path 937" d="M90.4,391.457a6.531,6.531,0,0,1-.877,3.254,19.091,19.091,0,0,1-1.281,2.355,8.742,8.742,0,0,0-1.337,3.386c-.038.245-.123.67-.332.628-.242-.047-.127-.453-.108-.7.062-.806.423-1.555.512-2.346a9.091,9.091,0,0,1,1.168-3.526,3.988,3.988,0,0,0,.277-.7,2.018,2.018,0,0,0-.453-2.191c-.08-.084-.2-.17-.147-.3s.179-.083.278-.062c.177.036.156-.089.163-.189a1.842,1.842,0,0,0-.187-.88c-.112-.252-.236-.5-.357-.747-.1-.211-.112-.392.178-.431.2-.028.221-.128.18-.3a4.673,4.673,0,0,0-1.087-2.367c-.08-.08-.163-.173-.119-.272.142-.325-.085-.508-.25-.714-1.422-1.767-3.085-3.309-4.645-4.946-.127-.133-.254-.267-.372-.408a.213.213,0,0,1-.048-.253c.067-.1.189-.043.247.008.718.625,1.724.8,2.35,1.6a13.935,13.935,0,0,0,1.862,1.7,12.8,12.8,0,0,1,3.86,5.439,9.111,9.111,0,0,1,.394,1.239,11.587,11.587,0,0,1,.131,1.719" transform="translate(-45.029 -369.071)" fill="#fff"/>
  <path id="Path_938" data-name="Path 938" d="M84.711,388.509l.8,1.52a4.657,4.657,0,0,1-1.552-2.177c.283.076.38.315.624.353a17.242,17.242,0,0,1-1.063-2.433,2.028,2.028,0,0,0-.219,1.849,16.7,16.7,0,0,0,1.949,3.949,5.97,5.97,0,0,1,.337.534c.065.116.127.282.018.365-.127.1-.278-.005-.38-.113a1.807,1.807,0,0,1-.287-.374c-.651-1.218-1.319-2.427-1.928-3.665a3.982,3.982,0,0,1-.047-3.114c.051-.153.132-.222.286-.2.268.044.334-.1.35-.333.031-.446.078-.891.126-1.336.015-.142.052-.346.2-.337.173.009.2.212.2.374a2.137,2.137,0,0,1-.044.392,5.172,5.172,0,0,0,.7,3.787,10.539,10.539,0,0,0,1.2,1.663,1.015,1.015,0,0,1,.178.21c.065.136.314.259.127.425s-.3-.081-.4-.186c-.374-.386-.726-.793-1.086-1.191-.015-.037-.03-.075-.044-.112-.046-.046-.07-.174-.158-.085-.07.069.033.128.078.184a.135.135,0,0,0,.042.047" transform="translate(-44.721 -368.176)" fill="#fff"/>
  <path id="Path_939" data-name="Path 939" d="M80.457,406.811a5.872,5.872,0,0,0-1.467-.671,4.66,4.66,0,0,0-2.715.037c-.161.05-.43.154-.491-.05-.074-.242.235-.226.381-.285a5.1,5.1,0,0,1,3.844.116,7.381,7.381,0,0,1,1.266.638c.172.1.291.234.192.452-.112.245-.273.187-.45.076-.111-.071-.191-.076-.2.1-.015.291-.226.295-.43.244-.841-.212-1.679-.435-2.519-.655-.071-.019-.184-.02-.17-.121.009-.061.094-.114.153-.161a.391.391,0,0,1,.341-.029c.608.112,1.215.225,1.824.332a.5.5,0,0,0,.441-.022" transform="translate(-46.59 -362.071)" fill="#fff"/>
  <path id="Path_940" data-name="Path 940" d="M81.144,389.968a8.284,8.284,0,0,0-.2,1.8,8.912,8.912,0,0,0,1.394,4.659,1.29,1.29,0,0,1,.137.239c.048.135.277.286.125.391-.194.135-.405-.011-.524-.206-.2-.325-.4-.651-.562-.994a9.261,9.261,0,0,1-.936-5.962c.038-.188.069-.384.327-.348.187.025.258.161.235.419" transform="translate(-45.33 -366.402)" fill="#fff"/>
  <path id="Path_941" data-name="Path 941" d="M81.943,388.6a6.705,6.705,0,0,1,.191-1.722c.046-.215.167-.432.362-.393s.224.3.191.5c-.071.441-.168.88-.211,1.323a6.261,6.261,0,0,0,1.794,5c.127.14.381.308.221.48-.2.211-.364-.061-.511-.192a6.69,6.69,0,0,1-2.036-5" transform="translate(-44.919 -367.232)" fill="#fff"/>
  <path id="Path_942" data-name="Path 942" d="M74.755,405.961a.671.671,0,0,1,.44-.42,8.18,8.18,0,0,1,6.426-.062.976.976,0,0,1,.144.066c.15.1.315.254.263.4-.066.184-.3.178-.48.123-.516-.154-1.028-.32-1.542-.479a3.855,3.855,0,0,0-1.4-.164,10.989,10.989,0,0,0-3.717.568c-.027.011-.071-.017-.131-.033" transform="translate(-46.866 -362.244)" fill="#fff"/>
  <path id="Path_943" data-name="Path 943" d="M80.2,392.624a11.877,11.877,0,0,0,.405,3.208,6.462,6.462,0,0,0,1.033,2.071,1.107,1.107,0,0,1,.172.262c.046.128.133.31.006.393s-.225-.088-.31-.184a6.9,6.9,0,0,1-1.689-4.12c-.075-.866-.079-1.733-.086-2.6,0-.175,0-.4.2-.414.229-.013.262.225.267.411.009.381,0,.763,0,.974" transform="translate(-45.516 -365.942)" fill="#fff"/>
  <path id="Path_944" data-name="Path 944" d="M81.8,388.674a5.94,5.94,0,0,0-.043,2.475,6.545,6.545,0,0,0,1.4,3c.1.123.3.3.141.428s-.344-.056-.454-.2a7.11,7.11,0,0,1-1.672-5.425,2.464,2.464,0,0,1,.1-.42c.053-.177.172-.337.36-.3s.142.245.163.428" transform="translate(-45.139 -366.756)" fill="#fff"/>
  <path id="Path_945" data-name="Path 945" d="M76.646,383.073c.212.036.278.212.381.334a24,24,0,0,0,2.149,2.41,6.366,6.366,0,0,0,1.73,1.149c.092.039.231.052.224.186-.009.163-.173.155-.275.163a1.324,1.324,0,0,1-.93-.361,17.937,17.937,0,0,1-3.149-3.4.6.6,0,0,1-.131-.478" transform="translate(-46.356 -368.156)" fill="#fff"/>
  <path id="Path_946" data-name="Path 946" d="M87.03,390.74a.561.561,0,0,1-.108.35c-.463.782-.8,1.627-1.2,2.438-.024.046-.046.094-.067.142-.08.169-.189.384-.389.282-.145-.074-.1-.31-.008-.465.525-.883.894-1.841,1.337-2.763.064-.133.135-.319.33-.28.116.023.094.17.1.3" transform="translate(-44.042 -366.159)" fill="#fff"/>
  <path id="Path_947" data-name="Path 947" d="M86.211,387.531c-.036.126-.1.159-.2.066a2.3,2.3,0,0,1-.266-.29,11.343,11.343,0,0,1-1.252-2.629.3.3,0,0,1,.121-.408c.136-.056.22.119.269.233a24.3,24.3,0,0,0,1.284,2.924.473.473,0,0,1,.039.1" transform="translate(-44.233 -367.835)" fill="#fff"/>
  <path id="Path_948" data-name="Path 948" d="M81.417,400.456c0-.06-.019-.155.081-.174a.287.287,0,0,1,.173.065.31.31,0,0,1,.146.222,2.445,2.445,0,0,0,.966,1.443c.165.14.487.292.305.54-.225.308-.475.017-.67-.131a2.753,2.753,0,0,1-1-1.965" transform="translate(-45.061 -363.491)" fill="#fff"/>
  <path id="Path_949" data-name="Path 949" d="M84.1,402.569a1.917,1.917,0,0,1-.206-.078,2.456,2.456,0,0,1-1.022-1.905c.017-.169.086-.341.259-.351.225-.011.154.2.159.328a1.666,1.666,0,0,0,.492,1.129c.155.16.332.3.493.452.083.08.219.167.184.28-.044.144-.224.1-.36.145" transform="translate(-44.667 -363.503)" fill="#fff"/>
  <path id="Path_950" data-name="Path 950" d="M83.066,412.2c.025.98-1.721,2.3-2.883,2.2a8.014,8.014,0,0,0,2.883-2.2" transform="translate(-45.395 -360.259)" fill="#fff"/>
  <path id="Path_951" data-name="Path 951" d="M81.645,399.69a.65.65,0,0,1-.632-.463c-.126-.372-.226-.752-.342-1.127-.036-.112-.047-.208.08-.263.15-.062.178.065.217.155a1.469,1.469,0,0,1,.1.3,1.047,1.047,0,0,0,.717.814c.151.056.375.109.324.314a.43.43,0,0,1-.466.273" transform="translate(-45.269 -364.158)" fill="#fff"/>
  <path id="Path_952" data-name="Path 952" d="M83.647,397.967a3.8,3.8,0,0,0,.569,1.214,1.534,1.534,0,0,0,.467.469.226.226,0,0,1,.085.337.255.255,0,0,1-.327.14,1.724,1.724,0,0,1-.794-2.16" transform="translate(-44.491 -364.118)" fill="#fff"/>
  <path id="Path_953" data-name="Path 953" d="M82.266,398.031c.112.03.139.14.173.234.112.292.208.591.318.887a2.034,2.034,0,0,0,.5.7c.105.108.267.214.05.37a.27.27,0,0,1-.43-.1c-.127-.2-.243-.4-.352-.614-.169-.323-.339-.648-.489-.983-.1-.215.048-.5.234-.5" transform="translate(-44.901 -364.101)" fill="#fff"/>
  <path id="Path_954" data-name="Path 954" d="M81.186,412.217c.092.01.2.015.211.132a.358.358,0,0,1-.149.344,4.853,4.853,0,0,1-1.15.6c-.233.086-.47.164-.7.25-.066.024-.132.041-.177-.023a.123.123,0,0,1,.046-.172,13.789,13.789,0,0,1,1.846-1.121.216.216,0,0,1,.078-.009" transform="translate(-45.662 -360.255)" fill="#fff"/>
  <path id="Path_955" data-name="Path 955" d="M76.493,412.41a.917.917,0,0,1-.92-.871c.008-.109.032-.23.136-.263a.2.2,0,0,1,.242.156c.109.357.384.422.708.441.222.013.576-.062.6.226.025.328-.356.2-.554.28a.787.787,0,0,1-.21.031" transform="translate(-46.645 -360.512)" fill="#fff"/>
  <path id="Path_956" data-name="Path 956" d="M84.028,395.542a.89.89,0,0,1,.006.5,1.153,1.153,0,0,0,.109.834,1.319,1.319,0,0,1,.062.144c.086.212.164.531-.036.6-.245.081-.31-.242-.37-.451-.075-.264-.142-.53-.2-.8a.634.634,0,0,1,.432-.824" transform="translate(-44.477 -364.776)" fill="#fff"/>
  <path id="Path_957" data-name="Path 957" d="M87.926,409.146a3.122,3.122,0,0,1-1.5,2.041c.558-.638.791-1.515,1.5-2.041" transform="translate(-43.702 -361.087)" fill="#fff"/>
  <path id="Path_958" data-name="Path 958" d="M84.87,392.541a.142.142,0,0,1-.1-.21c.172-.439.353-.873.541-1.3a.179.179,0,0,1,.233-.1.193.193,0,0,1,.139.215,2.7,2.7,0,0,1-.742,1.356.3.3,0,0,1-.069.039" transform="translate(-44.155 -366.029)" fill="#fff"/>
  <path id="Path_959" data-name="Path 959" d="M105.267,405.851v-1.67a1.119,1.119,0,0,1,0,1.67" transform="translate(-38.594 -362.433)" fill="#fff"/>
  <path id="Path_960" data-name="Path 960" d="M65.428,414.642a10.661,10.661,0,0,0,3.829-.592,1.992,1.992,0,0,1,.3-.1c.2-.034.479-.214.569.1a.482.482,0,0,1-.4.585c-.468.123-.95.2-1.422.3-1.159.252-2.344.283-3.515.426-.3.037-.492-.147-.714-.273a.25.25,0,0,1-.118-.306c.038-.12.153-.139.258-.14.407,0,.814,0,1.22,0" transform="translate(-49.799 -359.807)" fill="#fff"/>
  <path id="Path_961" data-name="Path 961" d="M63.976,413.166c.869.132,1.745.262,2.62.4.135.022.313.072.318.236,0,.107-.142.175-.252.219a3.234,3.234,0,0,1-2.622-.618.211.211,0,0,1-.064-.242" transform="translate(-49.793 -359.997)" fill="#fff"/>
  <path id="Path_962" data-name="Path 962" d="M64.069,408.189a.781.781,0,0,1,.583.2,11.45,11.45,0,0,0,2.433,1.277,9.457,9.457,0,0,0,1.7.328c.16.017.351.024.347.23,0,.187-.2.164-.337.2a1.918,1.918,0,0,1-1.195-.072,25.3,25.3,0,0,1-2.438-1,1.9,1.9,0,0,1-1.094-1.157" transform="translate(-49.763 -361.349)" fill="#fff"/>
  <path id="Path_963" data-name="Path 963" d="M65.745,410.282c-.416-.052-.833-.09-1.244-.164a2.553,2.553,0,0,1-.547-.207c-.153-.065-.3-.179-.248-.348.05-.15.235-.133.38-.113.1.015.206.038.309.053.478.075.955.153,1.434.22.2.027.355.141.339.313-.019.211-.22.263-.423.247" transform="translate(-49.865 -361.009)" fill="#fff"/>
</svg>
